<svg width="90" height="24" viewBox="0 0 90 24" fill="none" xmlns="http://www.w3.org/2000/svg">
<path d="M79.5704 6.784C80.6798 6.784 81.7464 6.944 82.7704 7.264C83.8158 7.584 84.7331 8.10667 85.5224 8.832L85.2024 11.008C84.4771 10.7947 83.8264 10.6027 83.2504 10.432C82.6744 10.2613 82.0024 10.176 81.2344 10.176C80.5731 10.176 80.0398 10.2933 79.6344 10.528C79.2291 10.7627 78.9304 11.2213 78.7384 11.904C78.5464 12.5867 78.4504 13.6 78.4504 14.944C78.4504 16.2027 78.5358 17.1627 78.7064 17.824C78.8984 18.464 79.1864 18.912 79.5704 19.168C79.9758 19.4027 80.4878 19.52 81.1064 19.52C81.6611 19.52 82.1411 19.4667 82.5464 19.36C82.9518 19.232 83.3571 19.0507 83.7624 18.816C84.1678 18.56 84.6264 18.2507 85.1384 17.888L85.4904 20.224C84.8504 21.12 84.0184 21.8773 82.9944 22.496C81.9704 23.0933 80.7118 23.392 79.2184 23.392C77.1918 23.392 75.7411 22.6667 74.8664 21.216C74.0131 19.7653 73.5864 17.6853 73.5864 14.976C73.5864 12.864 73.7998 11.2213 74.2264 10.048C74.6744 8.85334 75.3464 8.01067 76.2424 7.52C77.1384 7.02934 78.2478 6.784 79.5704 6.784ZM89.3944 0.608002V23.008H85.6504L85.1704 20.096L84.6584 19.744V9.376L84.8504 8.96C84.7864 8.29867 84.7331 7.63734 84.6904 6.976C84.6691 6.29333 84.6584 5.6 84.6584 4.896V0.608002H89.3944Z" fill="black"/>
<path d="M65.9519 6.78378C68.9385 6.78378 70.4319 8.24512 70.4319 11.1678V23.0078H65.6958V12.6398C65.6958 11.9358 65.5679 11.4558 65.3119 11.1998C65.0559 10.9225 64.6185 10.7838 63.9998 10.7838C63.3172 10.7838 62.6132 10.9225 61.8878 11.1998C61.1625 11.4558 60.2665 11.8611 59.1999 12.4158L58.9759 9.75978C60.1065 8.79978 61.2585 8.06378 62.4318 7.55178C63.6265 7.03978 64.7999 6.78378 65.9519 6.78378ZM58.7518 7.19978L59.2959 10.3358L59.6798 10.7518V23.0078H54.9438V7.19978H58.7518Z" fill="black"/>
<path d="M44.369 6.78378C47.0356 6.78378 48.945 7.24245 50.097 8.15978C51.2703 9.05578 51.857 10.3998 51.857 12.1918C51.8783 13.6424 51.5156 14.7304 50.769 15.4558C50.0223 16.1598 48.7317 16.5118 46.897 16.5118H38.065V13.8558H45.585C46.3103 13.8558 46.769 13.7065 46.961 13.4078C47.1743 13.0878 47.281 12.6504 47.281 12.0958C47.2596 11.3491 47.0357 10.8371 46.609 10.5598C46.2037 10.2611 45.5103 10.1118 44.529 10.1118C43.6543 10.1118 42.9717 10.2291 42.481 10.4638C41.9903 10.6985 41.649 11.1465 41.457 11.8078C41.265 12.4691 41.169 13.4291 41.169 14.6878C41.169 16.0105 41.2863 17.0344 41.521 17.7598C41.7556 18.4638 42.1503 18.9544 42.705 19.2318C43.281 19.5091 44.0703 19.6478 45.073 19.6478C45.7983 19.6478 46.6943 19.6265 47.761 19.5838C48.849 19.5198 49.937 19.4238 51.025 19.2958L51.473 22.2078C50.8543 22.5065 50.1503 22.7411 49.361 22.9118C48.5717 23.0824 47.761 23.1998 46.929 23.2638C46.097 23.3491 45.297 23.3918 44.529 23.3918C42.5237 23.3918 40.9023 23.1038 39.665 22.5278C38.449 21.9305 37.5636 21.0238 37.009 19.8078C36.4756 18.5918 36.209 17.0344 36.209 15.1358C36.209 13.0664 36.4863 11.4238 37.041 10.2078C37.5957 8.99178 38.4703 8.11712 39.665 7.58378C40.8597 7.05045 42.4276 6.78378 44.369 6.78378Z" fill="black"/>
<path d="M24.8765 0.927826V17.4398C24.8765 17.9732 25.0258 18.3785 25.3245 18.6558C25.6231 18.9332 26.0498 19.0718 26.6045 19.0718H34.3165L34.5405 22.7518C33.0258 22.9225 31.4365 23.0185 29.7725 23.0398C28.1298 23.0825 26.4871 23.1038 24.8445 23.1038C23.2445 23.1038 22.0285 22.6772 21.1965 21.8238C20.3858 20.9492 19.9805 19.8398 19.9805 18.4958V0.927826H24.8765Z" fill="black"/>
<path d="M17.152 7.1998L12.576 14.9118L17.504 23.0078H12.704L8.032 14.9118L12.352 7.1998H17.152ZM5.152 7.1998L9.472 14.9118L4.832 23.0078H0L4.928 14.9118L0.352001 7.1998H5.152ZM11.264 13.3758V16.3198H6.272V13.3758H11.264Z" fill="#0397FC"/>
</svg>
